<svg id="Capa_1" enable-background="new 0 0 512 512" height="512" viewBox="0 0 512 512" width="512" xmlns="http://www.w3.org/2000/svg"><g><g><g><g><path d="m69.504 431.87c-38.325 0-69.504-31.327-69.504-69.834s31.179-69.835 69.504-69.835c4.425 0 8.858.423 13.174 1.256l-5.684 29.479c-2.448-.473-4.968-.712-7.491-.712-21.783 0-39.504 17.86-39.504 39.812s17.721 39.812 39.504 39.812c3.171 0 6.322-.377 9.364-1.121l7.122 29.164c-5.369 1.313-10.916 1.979-16.485 1.979z" fill="#b8b8be"/></g></g></g><g><g><g><g><g><path d="m442.496 431.87c-5.569 0-11.116-.666-16.486-1.979l7.122-29.164c3.042.744 6.193 1.121 9.364 1.121 21.783 0 39.504-17.86 39.504-39.812s-17.721-39.812-39.504-39.812c-2.522 0-5.043.239-7.491.712l-5.684-29.479c4.316-.833 8.749-1.256 13.174-1.256 38.325 0 69.504 31.327 69.504 69.835s-31.178 69.834-69.503 69.834z" fill="#818181"/></g></g></g></g></g><g><g><path d="m201 158.291h110v194.232h-110z"/></g></g><g><g><g><path d="m90.994 39.747h30.011v31.585h-30.011z" fill="#ffdf3f" transform="matrix(.707 -.707 .707 .707 -8.239 91.178)"/></g></g></g><g><g><g><path d="m390.208 40.534h31.585v30.011h-31.585z" fill="#ffbe40" transform="matrix(.707 -.707 .707 .707 79.55 303.232)"/></g></g></g><g><path d="m92.962 237.086c-1.317 2.993-32.296 73.674-37.08 106.453-5.623 38.536 6.232 77.065 33.382 108.49 32.443 37.552 81.737 59.971 131.861 59.971h34.875l25.706-149.964-25.706-124.95z" fill="#818181"/><path d="m456.118 343.539c-4.783-32.779-35.762-103.46-37.079-106.453h-163.039v274.914h34.876c50.124 0 99.417-22.419 131.861-59.972 27.148-31.425 39.003-69.954 33.381-108.489z" fill="#5a5a5a"/><path d="m165.692 92.216c-25.302 19.212-44.167 46.498-53.117 76.832h143.425l15-47.46-15-59.737c-32.919.001-64.147 10.5-90.308 30.365z" fill="#ffdf3f"/><path d="m346.308 92.216c-26.161-19.865-57.389-30.364-90.308-30.364v107.196h143.425c-8.951-30.334-27.815-57.62-53.117-76.832z" fill="#ffbe40"/><path d="m241 0v31.597h15l7.5-15.799-7.5-15.798z" fill="#ffdf3f"/><path d="m256 0h15v31.597h-15z" fill="#ffbe40"/></g><g><path d="m63.954 158.291v100.074h192.046l18.294-46.071-18.294-54.003z" fill="#b8b8be"/><path d="m256 158.291h192.046v100.074h-192.046z" fill="#818181"/></g></g></svg>